<svg xmlns="http://www.w3.org/2000/svg" xmlns:xlink="http://www.w3.org/1999/xlink" width="315" height="20"><defs><linearGradient id="f" x1="0" x2="0" y1="0" y2="58.7" gradientTransform="matrix(1.41514 0 0 .341 89 0)" gradientUnits="userSpaceOnUse"><stop offset="0" stop-color="#bbb" stop-opacity=".1"/><stop offset="1" stop-opacity=".1"/></linearGradient><linearGradient id="h" x1="0" x2="0" y1="0" y2="34.4" gradientTransform="scale(1.71756 .58222)" gradientUnits="userSpaceOnUse"><stop offset="0" stop-color="#bbb" stop-opacity=".1"/><stop offset="1" stop-opacity=".1"/></linearGradient><linearGradient id="a" x1="0" x2="0" y1="0" y2="49" gradientTransform="scale(1.8167 .40825)" gradientUnits="userSpaceOnUse"><stop offset="0" stop-color="#bbb" stop-opacity=".1"/><stop offset="1" stop-opacity=".1"/></linearGradient><linearGradient xlink:href="#a" id="b" x1="0" x2="0" y1="0" y2="49" gradientTransform="matrix(.63278 0 0 .40825 89 0)" gradientUnits="userSpaceOnUse"/><linearGradient id="g" x1="0" x2="0" y1="0" y2="32.6" gradientTransform="scale(1.62788 .6143)" gradientUnits="userSpaceOnUse"><stop offset="0" stop-color="#bbb" stop-opacity=".1"/><stop offset="1" stop-opacity=".1"/></linearGradient><clipPath id="e"><rect width="172" height="20" fill="#fff" rx="3"/></clipPath><clipPath id="c" clipPathUnits="userSpaceOnUse"><path fill="#fff" d="M3 0h86v20H3c-2 0-3-1-3-3V3c0-2 1-3 3-3Z"/></clipPath></defs><linearGradient id="d" x1="0" x2="0" y1="0" y2="49" gradientTransform="scale(1.8167 .40825)" gradientUnits="userSpaceOnUse"><stop offset="0" stop-color="#bbb" stop-opacity=".1"/><stop offset="1" stop-opacity=".1"/></linearGradient><path fill="#ed1e45" d="M89 0h31v20H89z"/><path fill="url(#b)" d="M89 0h31v20H89z"/><g font-family="Verdana,Geneva,'DejaVu Sans',sans-serif" font-size="110" text-anchor="middle" text-rendering="geometricPrecision"><text x="1035" y="150" fill="#010101" fill-opacity=".3" aria-hidden="true" textLength="210" transform="scale(.1)">ABP</text><text x="1035" y="140" fill="#fff" textLength="210" transform="scale(.1)">ABP</text></g><g clip-path="url(#c)"><path fill="#555" d="M0 0h89v20H0z"/><path fill="url(#d)" d="M0 0h89v20H0z"/></g><g font-family="Verdana,Geneva,'DejaVu Sans',sans-serif" font-size="110" text-anchor="middle" text-rendering="geometricPrecision"><text x="455" y="150" fill="#010101" fill-opacity=".3" aria-hidden="true" textLength="790" transform="scale(.1)">subscribe with</text><text x="455" y="140" fill="#fff" textLength="790" transform="scale(.1)">subscribe with</text></g><g><g clip-path="url(#e)" transform="translate(143)"><path fill="#810101" d="M89 0h83v20H89z"/><path fill="url(#f)" d="M89 0h83v20H89z"/></g><g fill="#fff" font-family="Verdana, Geneva, 'DejaVu Sans', sans-serif" font-size="110" text-anchor="middle" text-rendering="geometricPrecision"><text x="1295" y="150" fill="#010101" fill-opacity=".3" aria-hidden="true" textLength="730" transform="matrix(.1 0 0 .1 143 0)">uBlock Origin</text><text x="1295" y="140" textLength="730" transform="matrix(.1 0 0 .1 143 0)">uBlock Origin</text></g></g><g><path fill="#f40d12" d="M179 0h53v20h-53z"/><path fill="url(#g)" d="M0 0h53v20H0z" transform="translate(179)"/><g fill="#fff" font-family="Verdana, Geneva, 'DejaVu Sans', sans-serif" font-size="110" text-anchor="middle" text-rendering="geometricPrecision"><text x="265" y="150" fill="#010101" fill-opacity=".3" aria-hidden="true" textLength="430" transform="matrix(.1 0 0 .1 179 0)">AdBlock</text><text x="265" y="140" textLength="430" transform="matrix(.1 0 0 .1 179 0)">AdBlock</text></g></g><g><path fill="#68bc71" d="M120 0h59v20h-59z"/><path fill="url(#h)" d="M0 0h59v20H0z" transform="translate(120)"/><g fill="#fff" font-family="Verdana, Geneva, 'DejaVu Sans', sans-serif" font-size="110" text-anchor="middle" text-rendering="geometricPrecision"><text x="295" y="150" fill="#010101" fill-opacity=".3" aria-hidden="true" textLength="490" transform="matrix(.1 0 0 .1 120 0)">AdGuard</text><text x="295" y="140" textLength="490" transform="matrix(.1 0 0 .1 120 0)">AdGuard</text></g></g></svg>
